<svg width="32" height="32" viewBox="0 0 32 32" fill="none" xmlns="http://www.w3.org/2000/svg">
<path d="M11.125 10.3125C11.125 10.3125 11.125 5.4375 16 5.4375C20.875 5.4375 20.875 10.3125 20.875 10.3125M7.0625 10.3125V26.5625H24.9375V10.3125H7.0625Z" stroke="#B4A27E" stroke-linecap="round" stroke-linejoin="round"/>
<path d="M12.9339 22.07C12.4739 22.07 12.0306 21.9933 11.6039 21.84C11.1839 21.6867 10.8272 21.47 10.5339 21.19L10.8539 20.56C11.1739 20.8333 11.5039 21.04 11.8439 21.18C12.1839 21.3133 12.5406 21.38 12.9139 21.38C13.4206 21.38 13.8039 21.2667 14.0639 21.04C14.3306 20.8133 14.4639 20.48 14.4639 20.04C14.4639 19.6 14.3272 19.2733 14.0539 19.06C13.7806 18.84 13.3706 18.73 12.8239 18.73H12.0039V18.04H12.6639C13.1906 18.04 13.5939 17.9233 13.8739 17.69C14.1539 17.4567 14.2939 17.1233 14.2939 16.69C14.2939 16.3033 14.1772 16.0067 13.9439 15.8C13.7172 15.5933 13.3939 15.49 12.9739 15.49C12.6206 15.49 12.2772 15.56 11.9439 15.7C11.6106 15.8333 11.2806 16.0367 10.9539 16.31L10.6439 15.68C10.9306 15.4067 11.2839 15.1933 11.7039 15.04C12.1239 14.88 12.5572 14.8 13.0039 14.8C13.4306 14.8 13.8039 14.8767 14.1239 15.03C14.4439 15.1767 14.6872 15.3867 14.8539 15.66C15.0272 15.9333 15.1139 16.2567 15.1139 16.63C15.1139 17.07 14.9972 17.4467 14.7639 17.76C14.5372 18.0667 14.2239 18.2767 13.8239 18.39L13.7939 18.29C14.2739 18.39 14.6406 18.5933 14.8939 18.9C15.1472 19.2067 15.2739 19.5967 15.2739 20.07C15.2739 20.69 15.0639 21.18 14.6439 21.54C14.2239 21.8933 13.6539 22.07 12.9339 22.07ZM16.83 22V21.38L19.32 18.62C19.6533 18.2467 19.8967 17.91 20.05 17.61C20.2033 17.31 20.28 17.01 20.28 16.71C20.28 16.3167 20.1667 16.0167 19.94 15.81C19.7133 15.5967 19.39 15.49 18.97 15.49C18.6233 15.49 18.2833 15.56 17.95 15.7C17.6167 15.8333 17.2833 16.0367 16.95 16.31L16.64 15.68C16.92 15.4133 17.2733 15.2 17.7 15.04C18.1267 14.88 18.5567 14.8 18.99 14.8C19.4233 14.8 19.7967 14.8767 20.11 15.03C20.43 15.1767 20.6767 15.39 20.85 15.67C21.0233 15.95 21.11 16.2833 21.11 16.67C21.11 17.0767 21.0167 17.47 20.83 17.85C20.65 18.2233 20.3467 18.6433 19.92 19.11L17.52 21.71L17.46 21.31H21.41V22H16.83Z" fill="black"/>
</svg>
