<svg width="215" height="15" viewBox="0 0 215 15" fill="none" xmlns="http://www.w3.org/2000/svg">
<path d="M0 14.2504H2.21069V0.63689H0V0.358251H6.41299V0.63689H4.2023V14.2504H6.41299V14.529H0V14.2504Z" fill="#B2B2B2"/>
<path d="M9.15534 10.2499H9.37442C9.52047 10.9664 9.70635 11.5702 9.93207 12.0611C10.1711 12.552 10.43 12.9567 10.7088 13.2752C10.9876 13.5936 11.2797 13.8391 11.5851 14.0116C11.8905 14.1841 12.1959 14.3101 12.5012 14.3897C12.8199 14.4693 13.1186 14.5158 13.3975 14.529C13.6896 14.5423 13.9618 14.5489 14.214 14.5489C14.9177 14.5489 15.4953 14.4428 15.9467 14.2305C16.3982 14.0182 16.7567 13.7528 17.0222 13.4344C17.2878 13.1027 17.4736 12.7511 17.5799 12.3795C17.6861 11.9948 17.7392 11.6431 17.7392 11.3247C17.7392 10.8603 17.6529 10.4622 17.4803 10.1305C17.3077 9.79881 17.0886 9.52017 16.823 9.29461C16.5575 9.05577 16.2654 8.86338 15.9467 8.71743C15.6414 8.57147 15.3493 8.45869 15.0704 8.37908L12.7801 7.68248C11.7046 7.35077 10.888 6.91291 10.3304 6.3689C9.78602 5.82489 9.51383 5.09512 9.51383 4.17959C9.51383 3.5825 9.62005 3.03186 9.83249 2.52765C10.0449 2.01018 10.3437 1.56569 10.7287 1.19417C11.1138 0.822649 11.5718 0.530741 12.1029 0.318444C12.6473 0.106148 13.2381 0 13.8755 0C14.3402 0 14.7252 0.0398056 15.0306 0.119417C15.3493 0.199028 15.6214 0.291907 15.8472 0.398056C16.0729 0.490936 16.272 0.577181 16.4446 0.656792C16.6305 0.736403 16.8164 0.776209 17.0023 0.776209C17.1749 0.776209 17.2878 0.756306 17.3409 0.716501C17.4072 0.663427 17.4936 0.54401 17.5998 0.358251H17.8786V3.96066H17.6396C17.5599 3.48299 17.4205 3.02523 17.2214 2.58736C17.0355 2.13623 16.7899 1.74481 16.4845 1.4131C16.1791 1.06812 15.8073 0.796111 15.3692 0.597083C14.9443 0.384787 14.4464 0.278639 13.8755 0.278639C13.5568 0.278639 13.205 0.325079 12.8199 0.417958C12.4349 0.49757 12.0764 0.643524 11.7444 0.85582C11.4125 1.06812 11.1337 1.34676 10.908 1.69174C10.6955 2.03672 10.5893 2.47458 10.5893 3.00532C10.5893 3.42992 10.6756 3.7948 10.8482 4.09998C11.0208 4.39188 11.2399 4.64399 11.5054 4.85628C11.7843 5.05531 12.0896 5.2278 12.4216 5.37376C12.7668 5.50644 13.112 5.62586 13.4572 5.73201L15.8671 6.48831C16.1193 6.56792 16.438 6.67407 16.823 6.80676C17.2081 6.93944 17.5799 7.13847 17.9383 7.40384C18.3101 7.66921 18.6221 8.02083 18.8744 8.45869C19.1399 8.89655 19.2727 9.45383 19.2727 10.1305C19.2727 10.7541 19.1532 11.3512 18.9142 11.9218C18.6885 12.4791 18.3566 12.9766 17.9184 13.4145C17.4803 13.8391 16.9492 14.1841 16.3251 14.4494C15.7011 14.7015 14.9974 14.8276 14.214 14.8276C13.9352 14.8276 13.6896 14.821 13.4771 14.8077C13.2647 14.8077 13.0655 14.7944 12.8797 14.7679C12.6938 14.7413 12.5079 14.7082 12.322 14.6684C12.1361 14.6418 11.9303 14.5954 11.7046 14.529C11.4391 14.4494 11.1536 14.3566 10.8482 14.2504C10.5428 14.1443 10.2773 14.0912 10.0516 14.0912C9.85241 14.0912 9.71299 14.131 9.63333 14.2106C9.56694 14.2902 9.50719 14.3964 9.45408 14.529H9.15534V10.2499Z" fill="#B2B2B2"/>
<path d="M23.0367 10.2499H23.2558C23.4018 10.9664 23.5877 11.5702 23.8134 12.0611C24.0524 12.552 24.3113 12.9567 24.5902 13.2752C24.869 13.5936 25.1611 13.8391 25.4665 14.0116C25.7719 14.1841 26.0772 14.3101 26.3826 14.3897C26.7013 14.4693 27 14.5158 27.2788 14.529C27.5709 14.5423 27.8431 14.5489 28.0954 14.5489C28.7991 14.5489 29.3767 14.4428 29.8281 14.2305C30.2795 14.0182 30.638 13.7528 30.9036 13.4344C31.1691 13.1027 31.355 12.7511 31.4612 12.3795C31.5674 11.9948 31.6206 11.6431 31.6206 11.3247C31.6206 10.8603 31.5343 10.4622 31.3616 10.1305C31.189 9.79881 30.97 9.52017 30.7044 9.29461C30.4389 9.05577 30.1468 8.86338 29.8281 8.71743C29.5227 8.57147 29.2306 8.45869 28.9518 8.37908L26.6614 7.68248C25.586 7.35077 24.7694 6.91291 24.2118 6.3689C23.6674 5.82489 23.3952 5.09512 23.3952 4.17959C23.3952 3.5825 23.5014 3.03186 23.7139 2.52765C23.9263 2.01018 24.225 1.56569 24.6101 1.19417C24.9951 0.822649 25.4532 0.530741 25.9843 0.318444C26.5287 0.106148 27.1195 0 27.7568 0C28.2215 0 28.6066 0.0398056 28.912 0.119417C29.2306 0.199028 29.5028 0.291907 29.7285 0.398056C29.9542 0.490936 30.1534 0.577181 30.326 0.656792C30.5119 0.736403 30.6978 0.776209 30.8837 0.776209C31.0563 0.776209 31.1691 0.756306 31.2222 0.716501C31.2886 0.663427 31.3749 0.54401 31.4811 0.358251H31.76V3.96066H31.521C31.4413 3.48299 31.3019 3.02523 31.1027 2.58736C30.9169 2.13623 30.6712 1.74481 30.3658 1.4131C30.0605 1.06812 29.6887 0.796111 29.2505 0.597083C28.8257 0.384787 28.3278 0.278639 27.7568 0.278639C27.4382 0.278639 27.0863 0.325079 26.7013 0.417958C26.3162 0.49757 25.9577 0.643524 25.6258 0.85582C25.2939 1.06812 25.015 1.34676 24.7893 1.69174C24.5769 2.03672 24.4707 2.47458 24.4707 3.00532C24.4707 3.42992 24.557 3.7948 24.7296 4.09998C24.9022 4.39188 25.1213 4.64399 25.3868 4.85628C25.6656 5.05531 25.971 5.2278 26.303 5.37376C26.6482 5.50644 26.9934 5.62586 27.3386 5.73201L29.7484 6.48831C30.0007 6.56792 30.3194 6.67407 30.7044 6.80676C31.0895 6.93944 31.4612 7.13847 31.8197 7.40384C32.1915 7.66921 32.5035 8.02083 32.7558 8.45869C33.0213 8.89655 33.1541 9.45383 33.1541 10.1305C33.1541 10.7541 33.0346 11.3512 32.7956 11.9218C32.5699 12.4791 32.238 12.9766 31.7998 13.4145C31.3616 13.8391 30.8305 14.1841 30.2065 14.4494C29.5825 14.7015 28.8788 14.8276 28.0954 14.8276C27.8166 14.8276 27.5709 14.821 27.3585 14.8077C27.1461 14.8077 26.9469 14.7944 26.761 14.7679C26.5751 14.7413 26.3893 14.7082 26.2034 14.6684C26.0175 14.6418 25.8117 14.5954 25.586 14.529C25.3204 14.4494 25.035 14.3566 24.7296 14.2504C24.4242 14.1443 24.1587 14.0912 23.9329 14.0912C23.7338 14.0912 23.5944 14.131 23.5147 14.2106C23.4483 14.2902 23.3886 14.3964 23.3355 14.529H23.0367V10.2499Z" fill="#B2B2B2"/>
<path d="M35.8426 0.358251H42.2556V0.63689H40.0449V10.2499C40.0449 11.0461 40.1113 11.7227 40.2441 12.28C40.3901 12.824 40.6026 13.2685 40.8814 13.6135C41.1602 13.9452 41.5054 14.1841 41.917 14.33C42.3286 14.476 42.8 14.5489 43.3311 14.5489C44.0746 14.5489 44.7318 14.4428 45.3028 14.2305C45.8737 14.0049 46.365 13.6135 46.7766 13.0562C46.9093 12.8837 47.0222 12.7113 47.1151 12.5388C47.2214 12.3663 47.3077 12.1672 47.374 11.9417C47.4537 11.7028 47.5135 11.4242 47.5533 11.1058C47.5931 10.774 47.613 10.3694 47.613 9.89169V0.63689H45.4023V0.358251H50.1225V0.63689H47.9118V10.2897C47.9118 10.847 47.852 11.3579 47.7325 11.8223C47.613 12.2734 47.3674 12.7444 46.9956 13.2354C46.6371 13.713 46.1392 14.0978 45.5019 14.3897C44.8646 14.6816 44.0215 14.8276 42.9726 14.8276C41.3793 14.8276 40.1578 14.4362 39.308 13.6533C38.4715 12.8705 38.0533 11.6697 38.0533 10.0509V0.63689H35.8426V0.358251Z" fill="#B2B2B2"/>
<path d="M51.7315 14.2504H53.9422V0.63689H51.7315V0.358251H63.1235V3.80143H62.9044C62.7318 3.28396 62.5459 2.83283 62.3467 2.44804C62.1476 2.04999 61.9086 1.71827 61.6298 1.4529C61.3509 1.17426 61.019 0.968603 60.634 0.835918C60.2489 0.703232 59.7842 0.63689 59.2398 0.63689H55.9338V6.78685H57.2283C57.6665 6.78685 58.0382 6.74705 58.3436 6.66744C58.649 6.58783 58.9079 6.44187 59.1203 6.22958C59.3461 6.00401 59.5319 5.70547 59.678 5.33395C59.8373 4.94916 59.99 4.45823 60.1361 3.86114H60.3551V10.0509H60.1361C60.0431 9.66613 59.9435 9.29461 59.8373 8.93636C59.7444 8.57811 59.605 8.25966 59.4191 7.98102C59.2465 7.70238 59.0075 7.48345 58.7021 7.32423C58.41 7.15174 58.025 7.06549 57.547 7.06549H55.9338V14.2504H59.6979C60.4282 14.2504 61.0323 14.0978 61.5103 13.7926C62.0015 13.4742 62.3999 13.1027 62.7052 12.6781C63.0106 12.2402 63.2363 11.7891 63.3824 11.3247C63.5284 10.8603 63.6214 10.4755 63.6612 10.1703H63.8803V14.529H51.7315V14.2504Z" fill="#B2B2B2"/>
<path d="M72.3132 14.2504H74.5239V0.63689H72.3132V0.358251H76.5753L83.3069 11.2053H83.3467V0.63689H81.136V0.358251H85.8562V0.63689H83.6455V14.8077H83.2472L74.8625 1.4529H74.8226V14.2504H77.0333V14.529H72.3132V14.2504Z" fill="#B2B2B2"/>
<path d="M87.2837 0.358251H93.6967V0.63689H91.486V10.2499C91.486 11.0461 91.5524 11.7227 91.6852 12.28C91.8313 12.824 92.0437 13.2685 92.3225 13.6135C92.6013 13.9452 92.9466 14.1841 93.3582 14.33C93.7698 14.476 94.2411 14.5489 94.7722 14.5489C95.5157 14.5489 96.173 14.4428 96.7439 14.2305C97.3148 14.0049 97.8061 13.6135 98.2177 13.0562C98.3505 12.8837 98.4633 12.7113 98.5563 12.5388C98.6625 12.3663 98.7488 12.1672 98.8152 11.9417C98.8948 11.7028 98.9546 11.4242 98.9944 11.1058C99.0342 10.774 99.0542 10.3694 99.0542 9.89169V0.63689H96.8435V0.358251H101.564V0.63689H99.3529V10.2897C99.3529 10.847 99.2932 11.3579 99.1737 11.8223C99.0542 12.2734 98.8085 12.7444 98.4368 13.2354C98.0783 13.713 97.5804 14.0978 96.9431 14.3897C96.3057 14.6816 95.4626 14.8276 94.4137 14.8276C92.8204 14.8276 91.5989 14.4362 90.7491 13.6533C89.9127 12.8705 89.4944 11.6697 89.4944 10.0509V0.63689H87.2837V0.358251Z" fill="#B2B2B2"/>
<path d="M103.093 14.2504H105.304V0.63689H103.093V0.358251H107.574L111.259 11.066H111.298L114.983 0.358251H119.384V0.63689H117.174V14.2504H119.384V14.529H112.971V14.2504H115.182V0.756306H115.142L110.382 14.5489L105.642 0.895625H105.602V14.2504H107.813V14.529H103.093V14.2504Z" fill="#B2B2B2"/>
<path d="M125.302 6.78685H127.134C127.506 6.78685 127.844 6.74042 128.15 6.64754C128.455 6.55466 128.714 6.39543 128.926 6.16987C129.152 5.93103 129.325 5.61259 129.444 5.21453C129.564 4.81648 129.624 4.31227 129.624 3.70192C129.624 3.01196 129.531 2.46131 129.345 2.04999C129.172 1.62539 128.94 1.30695 128.648 1.09465C128.369 0.882357 128.05 0.743037 127.692 0.676695C127.346 0.610352 127.001 0.577181 126.656 0.577181C126.417 0.577181 126.171 0.583815 125.919 0.597083C125.68 0.597083 125.474 0.610352 125.302 0.63689V6.78685ZM125.302 14.2504C125.461 14.2637 125.634 14.2836 125.82 14.3101C126.019 14.3234 126.298 14.33 126.656 14.33C127.28 14.33 127.811 14.2703 128.249 14.1509C128.701 14.0315 129.066 13.8258 129.345 13.5339C129.637 13.2287 129.849 12.8307 129.982 12.3397C130.115 11.8488 130.181 11.2318 130.181 10.4888C130.181 9.42729 129.955 8.59137 129.504 7.98102C129.053 7.37067 128.382 7.06549 127.493 7.06549H125.302V14.2504ZM121.099 14.2504H123.31V0.63689H121.099V0.358251H124.585C124.784 0.358251 124.983 0.358251 125.182 0.358251C125.395 0.344982 125.607 0.331713 125.82 0.318444C126.032 0.318444 126.238 0.318444 126.437 0.318444C126.636 0.305176 126.829 0.298541 127.015 0.298541C127.984 0.298541 128.78 0.417959 129.404 0.656792C130.028 0.882358 130.52 1.16763 130.878 1.51261C131.237 1.84433 131.482 2.20921 131.615 2.60727C131.748 2.99205 131.814 3.34367 131.814 3.66212C131.814 4.09998 131.715 4.50467 131.516 4.87619C131.33 5.2477 131.071 5.57278 130.739 5.85142C130.42 6.13006 130.048 6.35563 129.624 6.52812C129.199 6.70061 128.754 6.81339 128.289 6.86647V6.90627C128.767 6.94608 129.252 7.05223 129.743 7.22472C130.248 7.38394 130.699 7.61614 131.097 7.92131C131.509 8.21322 131.841 8.57811 132.093 9.01597C132.345 9.45383 132.472 9.95803 132.472 10.5286C132.472 11.1257 132.359 11.6763 132.133 12.1805C131.907 12.6714 131.569 13.096 131.117 13.4543C130.666 13.8125 130.095 14.0978 129.404 14.3101C128.714 14.5091 127.911 14.6087 126.995 14.6087C126.809 14.6087 126.623 14.602 126.437 14.5888C126.264 14.5888 126.078 14.5821 125.879 14.5688C125.68 14.5556 125.474 14.5423 125.262 14.529C125.049 14.529 124.824 14.529 124.585 14.529H121.099V14.2504Z" fill="#B2B2B2"/>
<path d="M134.981 14.2504H137.191V0.63689H134.981V0.358251H146.373V3.80143H146.154C145.981 3.28396 145.795 2.83283 145.596 2.44804C145.397 2.04999 145.158 1.71827 144.879 1.4529C144.6 1.17426 144.268 0.968603 143.883 0.835918C143.498 0.703232 143.034 0.63689 142.489 0.63689H139.183V6.78685H140.478C140.916 6.78685 141.288 6.74705 141.593 6.66744C141.898 6.58783 142.157 6.44187 142.37 6.22958C142.595 6.00401 142.781 5.70547 142.927 5.33395C143.087 4.94916 143.239 4.45823 143.385 3.86114H143.604V10.0509H143.385C143.292 9.66613 143.193 9.29461 143.087 8.93636C142.994 8.57811 142.854 8.25966 142.668 7.98102C142.496 7.70238 142.257 7.48345 141.951 7.32423C141.659 7.15174 141.274 7.06549 140.796 7.06549H139.183V14.2504H142.947C143.678 14.2504 144.282 14.0978 144.76 13.7926C145.251 13.4742 145.649 13.1027 145.955 12.6781C146.26 12.2402 146.486 11.7891 146.632 11.3247C146.778 10.8603 146.871 10.4755 146.911 10.1703H147.13V14.529H134.981V14.2504Z" fill="#B2B2B2"/>
<path d="M153.804 6.78685H155.636C156.008 6.78685 156.346 6.74042 156.652 6.64754C156.957 6.55466 157.216 6.39543 157.428 6.16987C157.654 5.93103 157.827 5.61259 157.946 5.21453C158.066 4.81648 158.125 4.31227 158.125 3.70192C158.125 3.01196 158.032 2.46131 157.847 2.04999C157.674 1.62539 157.442 1.30695 157.149 1.09465C156.871 0.882357 156.552 0.743037 156.193 0.676695C155.848 0.610352 155.503 0.577181 155.158 0.577181C154.919 0.577181 154.673 0.583815 154.421 0.597083C154.182 0.597083 153.976 0.610352 153.804 0.63689V6.78685ZM149.601 14.2504H151.812V0.63689H149.601V0.358251H153.385C153.545 0.358251 153.704 0.358251 153.863 0.358251C154.023 0.344982 154.182 0.331713 154.341 0.318444C154.501 0.318444 154.66 0.318444 154.819 0.318444C154.979 0.305176 155.138 0.298541 155.297 0.298541C156.081 0.298541 156.771 0.344982 157.369 0.437862C157.966 0.517473 158.524 0.762941 159.041 1.17427C159.506 1.53252 159.831 1.93721 160.017 2.38834C160.217 2.83947 160.316 3.26406 160.316 3.66212C160.316 3.86114 160.276 4.11988 160.197 4.43832C160.13 4.7435 159.971 5.06195 159.719 5.39366C159.48 5.7121 159.128 6.01065 158.663 6.28928C158.198 6.55466 157.581 6.73378 156.811 6.82666V6.86647C157.023 6.893 157.309 6.94608 157.667 7.02569C158.039 7.09203 158.411 7.21145 158.783 7.38394C159.168 7.55643 159.519 7.78863 159.838 8.08054C160.157 8.35918 160.383 8.72406 160.515 9.17519C160.595 9.44056 160.648 9.74574 160.675 10.0907C160.714 10.4224 160.741 10.7674 160.754 11.1257C160.781 11.4839 160.801 11.8289 160.814 12.1606C160.841 12.4923 160.88 12.771 160.934 12.9965C161.013 13.3415 161.139 13.6533 161.312 13.932C161.485 14.2106 161.763 14.3499 162.148 14.3499C162.321 14.3499 162.5 14.3167 162.686 14.2504C162.872 14.1841 163.038 14.0779 163.184 13.932L163.363 14.1509C163.297 14.204 163.217 14.2637 163.124 14.33C163.045 14.3831 162.938 14.4362 162.806 14.4892C162.673 14.5423 162.507 14.5821 162.308 14.6087C162.122 14.6485 161.889 14.6684 161.611 14.6684C161.08 14.6684 160.635 14.602 160.276 14.4693C159.931 14.3366 159.652 14.1443 159.44 13.8922C159.227 13.6268 159.068 13.3083 158.962 12.9368C158.869 12.552 158.803 12.1075 158.763 11.6033L158.623 9.79218C158.57 9.12875 158.437 8.61128 158.225 8.23976C158.012 7.86824 157.76 7.59624 157.468 7.42374C157.189 7.25125 156.897 7.15174 156.592 7.1252C156.286 7.0854 156.021 7.06549 155.795 7.06549H153.804V14.2504H156.014V14.529H149.601V14.2504Z" fill="#B2B2B2"/>
<path d="M173.76 7.42374C173.76 8.61791 173.839 9.65949 173.998 10.5485C174.158 11.4375 174.423 12.1805 174.795 12.7776C175.167 13.3747 175.645 13.8192 176.229 14.1111C176.813 14.403 177.537 14.5489 178.4 14.5489C179.25 14.5489 179.967 14.403 180.551 14.1111C181.148 13.8192 181.633 13.3747 182.005 12.7776C182.377 12.1805 182.642 11.4375 182.801 10.5485C182.961 9.65949 183.04 8.61791 183.04 7.42374C183.04 6.50822 182.981 5.62586 182.861 4.77667C182.742 3.91422 182.509 3.15128 182.164 2.48785C181.832 1.81115 181.361 1.27378 180.75 0.875722C180.153 0.477667 179.369 0.278639 178.4 0.278639C177.431 0.278639 176.641 0.477667 176.03 0.875722C175.432 1.27378 174.961 1.81115 174.616 2.48785C174.284 3.15128 174.058 3.91422 173.939 4.77667C173.819 5.62586 173.76 6.50822 173.76 7.42374ZM171.469 7.42374C171.469 6.36226 171.675 5.38039 172.087 4.47813C172.511 3.57587 173.049 2.79303 173.7 2.1296C174.364 1.46617 175.107 0.9487 175.93 0.577181C176.754 0.192394 177.577 0 178.4 0C179.276 0 180.126 0.192394 180.949 0.577181C181.786 0.9487 182.529 1.46617 183.18 2.1296C183.83 2.79303 184.348 3.57587 184.733 4.47813C185.132 5.38039 185.331 6.36226 185.331 7.42374C185.331 8.35254 185.152 9.26144 184.793 10.1504C184.435 11.0394 183.943 11.8289 183.319 12.5189C182.695 13.2088 181.958 13.7661 181.109 14.1907C180.272 14.6153 179.369 14.8276 178.4 14.8276C177.404 14.8276 176.481 14.6219 175.632 14.2106C174.782 13.7993 174.045 13.2553 173.421 12.5786C172.81 11.8886 172.332 11.0991 171.987 10.2101C171.642 9.30788 171.469 8.37908 171.469 7.42374Z" fill="#B2B2B2"/>
<path d="M187.701 14.2504H189.912V0.63689H187.701V0.358251H191.963L198.695 11.2053H198.735V0.63689H196.524V0.358251H201.244V0.63689H199.034V14.8077H198.635L190.251 1.4529H190.211V14.2504H192.421V14.529H187.701V14.2504Z" fill="#B2B2B2"/>
<path d="M202.851 14.2504H205.062V0.63689H202.851V0.358251H214.243V3.80143H214.024C213.852 3.28396 213.666 2.83283 213.466 2.44804C213.267 2.04999 213.028 1.71827 212.749 1.4529C212.471 1.17426 212.139 0.968603 211.754 0.835918C211.369 0.703232 210.904 0.63689 210.36 0.63689H207.053V6.78685H208.348C208.786 6.78685 209.158 6.74705 209.463 6.66744C209.769 6.58783 210.028 6.44187 210.24 6.22958C210.466 6.00401 210.652 5.70547 210.798 5.33395C210.957 4.94916 211.11 4.45823 211.256 3.86114H211.475V10.0509H211.256C211.163 9.66613 211.063 9.29461 210.957 8.93636C210.864 8.57811 210.725 8.25966 210.539 7.98102C210.366 7.70238 210.127 7.48345 209.822 7.32423C209.53 7.15174 209.145 7.06549 208.667 7.06549H207.053V14.2504H210.818C211.548 14.2504 212.152 14.0978 212.63 13.7926C213.121 13.4742 213.52 13.1027 213.825 12.6781C214.13 12.2402 214.356 11.7891 214.502 11.3247C214.648 10.8603 214.741 10.4755 214.781 10.1703H215V14.529H202.851V14.2504Z" fill="#B2B2B2"/>
</svg>
