<svg width="389" height="50" viewBox="0 0 389 50" fill="none" xmlns="http://www.w3.org/2000/svg">
<path d="M147.88 46.36C147.22 46.36 146.647 46.2167 146.16 45.93C145.673 45.6367 145.3 45.2167 145.04 44.67C144.78 44.1167 144.65 43.4633 144.65 42.71C144.65 41.9633 144.78 41.3167 145.04 40.77C145.3 40.2233 145.673 39.8067 146.16 39.52C146.647 39.2267 147.22 39.08 147.88 39.08C148.373 39.08 148.823 39.16 149.23 39.32C149.643 39.4733 150 39.7033 150.3 40.01L150.04 40.5C149.7 40.1933 149.36 39.9733 149.02 39.84C148.68 39.7 148.3 39.63 147.88 39.63C147.06 39.63 146.423 39.9 145.97 40.44C145.517 40.9733 145.29 41.73 145.29 42.71C145.29 43.6967 145.513 44.46 145.96 45C146.413 45.54 147.053 45.81 147.88 45.81C148.3 45.81 148.68 45.7433 149.02 45.61C149.36 45.47 149.7 45.2467 150.04 44.94L150.3 45.43C150 45.7367 149.643 45.97 149.23 46.13C148.823 46.2833 148.373 46.36 147.88 46.36ZM155.558 46.36C154.912 46.36 154.348 46.2133 153.868 45.92C153.395 45.6267 153.028 45.2067 152.768 44.66C152.515 44.1133 152.388 43.4667 152.388 42.72C152.388 41.9733 152.515 41.3267 152.768 40.78C153.022 40.2333 153.385 39.8133 153.858 39.52C154.338 39.2267 154.905 39.08 155.558 39.08C156.212 39.08 156.778 39.2267 157.258 39.52C157.738 39.8133 158.105 40.2333 158.358 40.78C158.612 41.32 158.738 41.9633 158.738 42.71C158.738 43.4567 158.608 44.1067 158.348 44.66C158.095 45.2067 157.728 45.6267 157.248 45.92C156.775 46.2133 156.212 46.36 155.558 46.36ZM155.558 45.81C156.358 45.81 156.978 45.54 157.418 45C157.865 44.46 158.088 43.6967 158.088 42.71C158.088 41.7233 157.868 40.9633 157.428 40.43C156.988 39.8967 156.365 39.63 155.558 39.63C154.758 39.63 154.135 39.9 153.688 40.44C153.248 40.9733 153.028 41.73 153.028 42.71C153.028 43.69 153.248 44.4533 153.688 45C154.135 45.54 154.758 45.81 155.558 45.81ZM167.038 39.16L163.958 46.28H163.388L160.308 39.16H160.958L163.678 45.48L166.398 39.16H167.038ZM169.024 39.16H173.414V39.69H169.634V42.39H173.214V42.94H169.634V45.75H173.414V46.28H169.024V39.16ZM177.447 39.7H174.897V39.16H180.617V39.7H178.067V46.28H177.447V39.7ZM182.654 39.16H187.044V39.69H183.264V42.39H186.844V42.94H183.264V45.75H187.044V46.28H182.654V39.16ZM189.504 39.16H191.794C192.927 39.16 193.801 39.4667 194.414 40.08C195.027 40.6933 195.334 41.57 195.334 42.71C195.334 43.85 195.024 44.73 194.404 45.35C193.791 45.97 192.921 46.28 191.794 46.28H189.504V39.16ZM191.764 45.74C192.731 45.74 193.457 45.4867 193.944 44.98C194.431 44.4667 194.674 43.71 194.674 42.71C194.674 40.7033 193.704 39.7 191.764 39.7H190.124V45.74H191.764ZM206.085 44.38H202.245L201.425 46.28H200.785L203.885 39.16H204.445L207.535 46.28H206.895L206.085 44.38ZM205.845 43.84L204.165 39.91L202.475 43.84H205.845ZM212.417 46.36C211.757 46.36 211.184 46.2167 210.697 45.93C210.21 45.6367 209.837 45.2167 209.577 44.67C209.317 44.1167 209.187 43.4633 209.187 42.71C209.187 41.9633 209.317 41.3167 209.577 40.77C209.837 40.2233 210.21 39.8067 210.697 39.52C211.184 39.2267 211.757 39.08 212.417 39.08C212.91 39.08 213.36 39.16 213.767 39.32C214.18 39.4733 214.537 39.7033 214.837 40.01L214.577 40.5C214.237 40.1933 213.897 39.9733 213.557 39.84C213.217 39.7 212.837 39.63 212.417 39.63C211.597 39.63 210.96 39.9 210.507 40.44C210.054 40.9733 209.827 41.73 209.827 42.71C209.827 43.6967 210.05 44.46 210.497 45C210.95 45.54 211.59 45.81 212.417 45.81C212.837 45.81 213.217 45.7433 213.557 45.61C213.897 45.47 214.237 45.2467 214.577 44.94L214.837 45.43C214.537 45.7367 214.18 45.97 213.767 46.13C213.36 46.2833 212.91 46.36 212.417 46.36ZM220.155 46.36C219.495 46.36 218.922 46.2167 218.435 45.93C217.949 45.6367 217.575 45.2167 217.315 44.67C217.055 44.1167 216.925 43.4633 216.925 42.71C216.925 41.9633 217.055 41.3167 217.315 40.77C217.575 40.2233 217.949 39.8067 218.435 39.52C218.922 39.2267 219.495 39.08 220.155 39.08C220.649 39.08 221.099 39.16 221.505 39.32C221.919 39.4733 222.275 39.7033 222.575 40.01L222.315 40.5C221.975 40.1933 221.635 39.9733 221.295 39.84C220.955 39.7 220.575 39.63 220.155 39.63C219.335 39.63 218.699 39.9 218.245 40.44C217.792 40.9733 217.565 41.73 217.565 42.71C217.565 43.6967 217.789 44.46 218.235 45C218.689 45.54 219.329 45.81 220.155 45.81C220.575 45.81 220.955 45.7433 221.295 45.61C221.635 45.47 221.975 45.2467 222.315 44.94L222.575 45.43C222.275 45.7367 221.919 45.97 221.505 46.13C221.099 46.2833 220.649 46.36 220.155 46.36ZM225.031 39.16H229.421V39.69H225.641V42.39H229.221V42.94H225.641V45.75H229.421V46.28H225.031V39.16ZM233.993 46.36C233.433 46.36 232.937 46.2867 232.503 46.14C232.077 45.9867 231.697 45.75 231.363 45.43L231.623 44.94C231.977 45.2533 232.333 45.4767 232.693 45.61C233.06 45.7433 233.493 45.81 233.993 45.81C234.593 45.81 235.06 45.6867 235.393 45.44C235.727 45.1933 235.893 44.8467 235.893 44.4C235.893 44.14 235.81 43.93 235.643 43.77C235.483 43.6033 235.277 43.4733 235.023 43.38C234.777 43.2867 234.447 43.1933 234.033 43.1C233.487 42.98 233.04 42.8567 232.693 42.73C232.353 42.5967 232.067 42.4 231.833 42.14C231.6 41.88 231.483 41.5333 231.483 41.1C231.483 40.7 231.587 40.3467 231.793 40.04C232 39.7333 232.293 39.4967 232.673 39.33C233.06 39.1633 233.507 39.08 234.013 39.08C234.5 39.08 234.95 39.16 235.363 39.32C235.777 39.4733 236.133 39.7033 236.433 40.01L236.173 40.5C235.84 40.2 235.5 39.98 235.153 39.84C234.807 39.7 234.427 39.63 234.013 39.63C233.413 39.63 232.943 39.76 232.603 40.02C232.27 40.28 232.103 40.6367 232.103 41.09C232.103 41.4833 232.25 41.7767 232.543 41.97C232.837 42.1633 233.267 42.3267 233.833 42.46L234.123 42.53C234.657 42.6567 235.08 42.78 235.393 42.9C235.707 43.02 235.973 43.2 236.193 43.44C236.413 43.68 236.523 44 236.523 44.4C236.523 44.7867 236.42 45.13 236.213 45.43C236.007 45.7233 235.71 45.9533 235.323 46.12C234.943 46.28 234.5 46.36 233.993 46.36ZM241.126 46.36C240.566 46.36 240.069 46.2867 239.636 46.14C239.209 45.9867 238.829 45.75 238.496 45.43L238.756 44.94C239.109 45.2533 239.466 45.4767 239.826 45.61C240.193 45.7433 240.626 45.81 241.126 45.81C241.726 45.81 242.193 45.6867 242.526 45.44C242.859 45.1933 243.026 44.8467 243.026 44.4C243.026 44.14 242.943 43.93 242.776 43.77C242.616 43.6033 242.409 43.4733 242.156 43.38C241.909 43.2867 241.579 43.1933 241.166 43.1C240.619 42.98 240.173 42.8567 239.826 42.73C239.486 42.5967 239.199 42.4 238.966 42.14C238.733 41.88 238.616 41.5333 238.616 41.1C238.616 40.7 238.719 40.3467 238.926 40.04C239.133 39.7333 239.426 39.4967 239.806 39.33C240.193 39.1633 240.639 39.08 241.146 39.08C241.633 39.08 242.083 39.16 242.496 39.32C242.909 39.4733 243.266 39.7033 243.566 40.01L243.306 40.5C242.973 40.2 242.633 39.98 242.286 39.84C241.939 39.7 241.559 39.63 241.146 39.63C240.546 39.63 240.076 39.76 239.736 40.02C239.403 40.28 239.236 40.6367 239.236 41.09C239.236 41.4833 239.383 41.7767 239.676 41.97C239.969 42.1633 240.399 42.3267 240.966 42.46L241.256 42.53C241.789 42.6567 242.213 42.78 242.526 42.9C242.839 43.02 243.106 43.2 243.326 43.44C243.546 43.68 243.656 44 243.656 44.4C243.656 44.7867 243.553 45.13 243.346 45.43C243.139 45.7233 242.843 45.9533 242.456 46.12C242.076 46.28 241.633 46.36 241.126 46.36Z" fill="#B2B2B2"/>
<path d="M0 25.776H3.996V1.152H0V0.648001H11.592V1.152H7.596V25.776H11.592V26.28H0V25.776Z" fill="#B2B2B2"/>
<path d="M16.549 18.54H16.945C17.209 19.836 17.545 20.928 17.953 21.816C18.385 22.704 18.853 23.436 19.357 24.012C19.861 24.588 20.389 25.032 20.941 25.344C21.493 25.656 22.045 25.884 22.597 26.028C23.173 26.172 23.713 26.256 24.217 26.28C24.745 26.304 25.237 26.316 25.693 26.316C26.965 26.316 28.009 26.124 28.825 25.74C29.641 25.356 30.289 24.876 30.769 24.3C31.249 23.7 31.585 23.064 31.777 22.392C31.969 21.696 32.065 21.06 32.065 20.484C32.065 19.644 31.909 18.924 31.597 18.324C31.285 17.724 30.889 17.22 30.409 16.812C29.929 16.38 29.401 16.032 28.825 15.768C28.273 15.504 27.745 15.3 27.241 15.156L23.101 13.896C21.157 13.296 19.681 12.504 18.673 11.52C17.689 10.536 17.197 9.216 17.197 7.56C17.197 6.48 17.389 5.484 17.773 4.572C18.157 3.636 18.697 2.832 19.393 2.16C20.089 1.488 20.917 0.96 21.877 0.575999C22.861 0.192 23.929 0 25.081 0C25.921 0 26.617 0.072 27.169 0.216C27.745 0.359999 28.237 0.527999 28.645 0.719999C29.053 0.888 29.413 1.044 29.725 1.188C30.061 1.332 30.397 1.404 30.733 1.404C31.045 1.404 31.249 1.368 31.345 1.296C31.465 1.2 31.621 0.984001 31.813 0.648001H32.317V7.164H31.885C31.741 6.3 31.489 5.472 31.129 4.68C30.793 3.864 30.349 3.156 29.797 2.556C29.245 1.932 28.573 1.44 27.781 1.08C27.013 0.696 26.113 0.504 25.081 0.504C24.505 0.504 23.869 0.587999 23.173 0.755999C22.477 0.9 21.829 1.164 21.229 1.548C20.629 1.932 20.125 2.436 19.717 3.06C19.333 3.684 19.141 4.476 19.141 5.436C19.141 6.204 19.297 6.864 19.609 7.416C19.921 7.944 20.317 8.4 20.797 8.784C21.301 9.144 21.853 9.456 22.453 9.72C23.077 9.96 23.701 10.176 24.325 10.368L28.681 11.736C29.137 11.88 29.713 12.072 30.409 12.312C31.105 12.552 31.777 12.912 32.425 13.392C33.097 13.872 33.661 14.508 34.117 15.3C34.597 16.092 34.837 17.1 34.837 18.324C34.837 19.452 34.621 20.532 34.189 21.564C33.781 22.572 33.181 23.472 32.389 24.264C31.597 25.032 30.637 25.656 29.509 26.136C28.381 26.592 27.109 26.82 25.693 26.82C25.189 26.82 24.745 26.808 24.361 26.784C23.977 26.784 23.617 26.76 23.281 26.712C22.945 26.664 22.609 26.604 22.273 26.532C21.937 26.484 21.565 26.4 21.157 26.28C20.677 26.136 20.161 25.968 19.609 25.776C19.057 25.584 18.577 25.488 18.169 25.488C17.809 25.488 17.557 25.56 17.413 25.704C17.293 25.848 17.185 26.04 17.089 26.28H16.549V18.54Z" fill="#B2B2B2"/>
<path d="M41.6408 18.54H42.0368C42.3008 19.836 42.6368 20.928 43.0448 21.816C43.4768 22.704 43.9447 23.436 44.4487 24.012C44.9527 24.588 45.4807 25.032 46.0327 25.344C46.5847 25.656 47.1368 25.884 47.6888 26.028C48.2648 26.172 48.8048 26.256 49.3088 26.28C49.8367 26.304 50.3288 26.316 50.7848 26.316C52.0568 26.316 53.1008 26.124 53.9168 25.74C54.7328 25.356 55.3808 24.876 55.8608 24.3C56.3408 23.7 56.6768 23.064 56.8688 22.392C57.0608 21.696 57.1567 21.06 57.1567 20.484C57.1567 19.644 57.0008 18.924 56.6888 18.324C56.3768 17.724 55.9808 17.22 55.5008 16.812C55.0208 16.38 54.4928 16.032 53.9168 15.768C53.3648 15.504 52.8368 15.3 52.3328 15.156L48.1927 13.896C46.2487 13.296 44.7728 12.504 43.7648 11.52C42.7808 10.536 42.2887 9.216 42.2887 7.56C42.2887 6.48 42.4807 5.484 42.8647 4.572C43.2487 3.636 43.7887 2.832 44.4847 2.16C45.1807 1.488 46.0088 0.96 46.9688 0.575999C47.9527 0.192 49.0207 0 50.1727 0C51.0127 0 51.7087 0.072 52.2607 0.216C52.8368 0.359999 53.3288 0.527999 53.7368 0.719999C54.1448 0.888 54.5048 1.044 54.8167 1.188C55.1527 1.332 55.4887 1.404 55.8247 1.404C56.1367 1.404 56.3408 1.368 56.4368 1.296C56.5568 1.2 56.7128 0.984001 56.9048 0.648001H57.4087V7.164H56.9768C56.8328 6.3 56.5808 5.472 56.2208 4.68C55.8848 3.864 55.4408 3.156 54.8888 2.556C54.3368 1.932 53.6647 1.44 52.8727 1.08C52.1047 0.696 51.2047 0.504 50.1727 0.504C49.5967 0.504 48.9608 0.587999 48.2648 0.755999C47.5688 0.9 46.9208 1.164 46.3208 1.548C45.7208 1.932 45.2168 2.436 44.8088 3.06C44.4248 3.684 44.2327 4.476 44.2327 5.436C44.2327 6.204 44.3888 6.864 44.7008 7.416C45.0128 7.944 45.4088 8.4 45.8888 8.784C46.3928 9.144 46.9448 9.456 47.5448 9.72C48.1688 9.96 48.7928 10.176 49.4168 10.368L53.7728 11.736C54.2288 11.88 54.8048 12.072 55.5008 12.312C56.1968 12.552 56.8688 12.912 57.5168 13.392C58.1888 13.872 58.7528 14.508 59.2088 15.3C59.6888 16.092 59.9287 17.1 59.9287 18.324C59.9287 19.452 59.7128 20.532 59.2808 21.564C58.8728 22.572 58.2728 23.472 57.4808 24.264C56.6888 25.032 55.7287 25.656 54.6007 26.136C53.4727 26.592 52.2008 26.82 50.7848 26.82C50.2808 26.82 49.8368 26.808 49.4528 26.784C49.0688 26.784 48.7087 26.76 48.3727 26.712C48.0367 26.664 47.7007 26.604 47.3647 26.532C47.0287 26.484 46.6567 26.4 46.2487 26.28C45.7687 26.136 45.2528 25.968 44.7008 25.776C44.1488 25.584 43.6687 25.488 43.2607 25.488C42.9007 25.488 42.6487 25.56 42.5047 25.704C42.3847 25.848 42.2768 26.04 42.1808 26.28H41.6408V18.54Z" fill="#B2B2B2"/>
<path d="M64.7885 0.648001H76.3805V1.152H72.3845V18.54C72.3845 19.98 72.5045 21.204 72.7445 22.212C73.0085 23.196 73.3925 24 73.8965 24.624C74.4005 25.224 75.0245 25.656 75.7685 25.92C76.5125 26.184 77.3645 26.316 78.3245 26.316C79.6685 26.316 80.8565 26.124 81.8885 25.74C82.9205 25.332 83.8085 24.624 84.5525 23.616C84.7925 23.304 84.9965 22.992 85.1645 22.68C85.3565 22.368 85.5125 22.008 85.6325 21.6C85.7765 21.168 85.8845 20.664 85.9565 20.088C86.0285 19.488 86.0645 18.756 86.0645 17.892V1.152H82.0685V0.648001H90.6005V1.152H86.6045V18.612C86.6045 19.62 86.4965 20.544 86.2805 21.384C86.0645 22.2 85.6205 23.052 84.9485 23.94C84.3005 24.804 83.4005 25.5 82.2485 26.028C81.0965 26.556 79.5725 26.82 77.6765 26.82C74.7965 26.82 72.5885 26.112 71.0525 24.696C69.5405 23.28 68.7845 21.108 68.7845 18.18V1.152H64.7885V0.648001Z" fill="#B2B2B2"/>
<path d="M93.5089 25.776H97.5049V1.152H93.5089V0.648001H114.101V6.876H113.705C113.393 5.94 113.057 5.124 112.697 4.428C112.337 3.708 111.905 3.108 111.401 2.628C110.897 2.124 110.297 1.752 109.601 1.512C108.905 1.272 108.065 1.152 107.081 1.152H101.105V12.276H103.445C104.237 12.276 104.909 12.204 105.461 12.06C106.013 11.916 106.481 11.652 106.865 11.268C107.273 10.86 107.609 10.32 107.873 9.648C108.161 8.952 108.437 8.064 108.701 6.984H109.097V18.18H108.701C108.533 17.484 108.353 16.812 108.161 16.164C107.993 15.516 107.741 14.94 107.405 14.436C107.093 13.932 106.661 13.536 106.109 13.248C105.581 12.936 104.885 12.78 104.021 12.78H101.105V25.776H107.909C109.229 25.776 110.321 25.5 111.185 24.948C112.073 24.372 112.793 23.7 113.345 22.932C113.897 22.14 114.305 21.324 114.569 20.484C114.833 19.644 115.001 18.948 115.073 18.396H115.469V26.28H93.5089V25.776Z" fill="#B2B2B2"/>
<path d="M130.712 25.776H134.708V1.152H130.712V0.648001H138.416L150.584 20.268H150.656V1.152H146.66V0.648001H155.192V1.152H151.196V26.784H150.476L135.32 2.628H135.248V25.776H139.244V26.28H130.712V25.776Z" fill="#B2B2B2"/>
<path d="M157.773 0.648001H169.365V1.152H165.369V18.54C165.369 19.98 165.489 21.204 165.729 22.212C165.993 23.196 166.377 24 166.881 24.624C167.385 25.224 168.009 25.656 168.753 25.92C169.497 26.184 170.349 26.316 171.309 26.316C172.653 26.316 173.841 26.124 174.873 25.74C175.905 25.332 176.793 24.624 177.537 23.616C177.777 23.304 177.981 22.992 178.149 22.68C178.341 22.368 178.497 22.008 178.617 21.6C178.761 21.168 178.869 20.664 178.941 20.088C179.013 19.488 179.049 18.756 179.049 17.892V1.152H175.053V0.648001H183.585V1.152H179.589V18.612C179.589 19.62 179.481 20.544 179.265 21.384C179.049 22.2 178.605 23.052 177.933 23.94C177.285 24.804 176.385 25.5 175.233 26.028C174.081 26.556 172.557 26.82 170.661 26.82C167.781 26.82 165.573 26.112 164.037 24.696C162.525 23.28 161.769 21.108 161.769 18.18V1.152H157.773V0.648001Z" fill="#B2B2B2"/>
<path d="M186.349 25.776H190.345V1.152H186.349V0.648001H194.449L201.109 20.016H201.181L207.841 0.648001H215.797V1.152H211.801V25.776H215.797V26.28H204.205V25.776H208.201V1.368H208.129L199.525 26.316L190.957 1.62H190.885V25.776H194.881V26.28H186.349V25.776Z" fill="#B2B2B2"/>
<path d="M226.493 12.276H229.805C230.477 12.276 231.089 12.192 231.641 12.024C232.193 11.856 232.661 11.568 233.045 11.16C233.453 10.728 233.765 10.152 233.981 9.432C234.197 8.712 234.305 7.8 234.305 6.696C234.305 5.448 234.137 4.452 233.801 3.708C233.489 2.94 233.069 2.364 232.541 1.98C232.037 1.596 231.461 1.344 230.813 1.224C230.189 1.104 229.565 1.044 228.941 1.044C228.509 1.044 228.065 1.056 227.609 1.08C227.177 1.08 226.805 1.104 226.493 1.152V12.276ZM226.493 25.776C226.781 25.8 227.093 25.836 227.429 25.884C227.789 25.908 228.293 25.92 228.941 25.92C230.069 25.92 231.029 25.812 231.821 25.596C232.637 25.38 233.297 25.008 233.801 24.48C234.329 23.928 234.713 23.208 234.953 22.32C235.193 21.432 235.313 20.316 235.313 18.972C235.313 17.052 234.905 15.54 234.089 14.436C233.273 13.332 232.061 12.78 230.453 12.78H226.493V25.776ZM218.897 25.776H222.893V1.152H218.897V0.648001H225.197C225.557 0.648001 225.917 0.648001 226.277 0.648001C226.661 0.624 227.045 0.599999 227.429 0.575999C227.813 0.575999 228.185 0.575999 228.545 0.575999C228.905 0.552 229.253 0.539999 229.589 0.539999C231.341 0.539999 232.781 0.756 233.909 1.188C235.037 1.596 235.925 2.112 236.573 2.736C237.221 3.336 237.665 3.996 237.905 4.716C238.145 5.412 238.265 6.048 238.265 6.624C238.265 7.416 238.085 8.148 237.725 8.82C237.389 9.492 236.921 10.08 236.321 10.584C235.745 11.088 235.073 11.496 234.305 11.808C233.537 12.12 232.733 12.324 231.893 12.42V12.492C232.757 12.564 233.633 12.756 234.521 13.068C235.433 13.356 236.249 13.776 236.969 14.328C237.713 14.856 238.313 15.516 238.769 16.308C239.225 17.1 239.453 18.012 239.453 19.044C239.453 20.124 239.249 21.12 238.841 22.032C238.433 22.92 237.821 23.688 237.005 24.336C236.189 24.984 235.157 25.5 233.909 25.884C232.661 26.244 231.209 26.424 229.553 26.424C229.217 26.424 228.881 26.412 228.545 26.388C228.233 26.388 227.897 26.376 227.537 26.352C227.177 26.328 226.805 26.304 226.421 26.28C226.037 26.28 225.629 26.28 225.197 26.28H218.897V25.776Z" fill="#B2B2B2"/>
<path d="M243.989 25.776H247.985V1.152H243.989V0.648001H264.581V6.876H264.185C263.873 5.94 263.537 5.124 263.177 4.428C262.817 3.708 262.385 3.108 261.881 2.628C261.377 2.124 260.777 1.752 260.081 1.512C259.385 1.272 258.545 1.152 257.561 1.152H251.585V12.276H253.925C254.717 12.276 255.389 12.204 255.941 12.06C256.493 11.916 256.961 11.652 257.345 11.268C257.753 10.86 258.089 10.32 258.353 9.648C258.641 8.952 258.917 8.064 259.181 6.984H259.577V18.18H259.181C259.013 17.484 258.833 16.812 258.641 16.164C258.473 15.516 258.221 14.94 257.885 14.436C257.573 13.932 257.141 13.536 256.589 13.248C256.061 12.936 255.365 12.78 254.501 12.78H251.585V25.776H258.389C259.709 25.776 260.801 25.5 261.665 24.948C262.553 24.372 263.273 23.7 263.825 22.932C264.377 22.14 264.785 21.324 265.049 20.484C265.313 19.644 265.481 18.948 265.553 18.396H265.949V26.28H243.989V25.776Z" fill="#B2B2B2"/>
<path d="M278.013 12.276H281.325C281.997 12.276 282.609 12.192 283.161 12.024C283.713 11.856 284.181 11.568 284.565 11.16C284.973 10.728 285.285 10.152 285.501 9.432C285.717 8.712 285.825 7.8 285.825 6.696C285.825 5.448 285.657 4.452 285.321 3.708C285.009 2.94 284.589 2.364 284.061 1.98C283.557 1.596 282.981 1.344 282.333 1.224C281.709 1.104 281.085 1.044 280.461 1.044C280.029 1.044 279.585 1.056 279.129 1.08C278.697 1.08 278.325 1.104 278.013 1.152V12.276ZM270.417 25.776H274.413V1.152H270.417V0.648001H277.257C277.545 0.648001 277.833 0.648001 278.121 0.648001C278.409 0.624 278.697 0.599999 278.985 0.575999C279.273 0.575999 279.561 0.575999 279.849 0.575999C280.137 0.552 280.425 0.539999 280.713 0.539999C282.129 0.539999 283.377 0.624 284.457 0.792001C285.537 0.936 286.545 1.38 287.481 2.124C288.321 2.772 288.909 3.504 289.245 4.32C289.605 5.136 289.785 5.904 289.785 6.624C289.785 6.984 289.713 7.452 289.569 8.028C289.449 8.58 289.161 9.156 288.705 9.756C288.273 10.332 287.637 10.872 286.797 11.376C285.957 11.856 284.841 12.18 283.449 12.348V12.42C283.833 12.468 284.349 12.564 284.997 12.708C285.669 12.828 286.341 13.044 287.013 13.356C287.709 13.668 288.345 14.088 288.921 14.616C289.497 15.12 289.905 15.78 290.145 16.596C290.289 17.076 290.385 17.628 290.433 18.252C290.505 18.852 290.553 19.476 290.577 20.124C290.625 20.772 290.661 21.396 290.685 21.996C290.733 22.596 290.805 23.1 290.901 23.508C291.045 24.132 291.273 24.696 291.585 25.2C291.897 25.704 292.401 25.956 293.097 25.956C293.409 25.956 293.733 25.896 294.069 25.776C294.405 25.656 294.705 25.464 294.969 25.2L295.293 25.596C295.173 25.692 295.029 25.8 294.861 25.92C294.717 26.016 294.525 26.112 294.285 26.208C294.045 26.304 293.745 26.376 293.385 26.424C293.049 26.496 292.629 26.532 292.125 26.532C291.165 26.532 290.361 26.412 289.713 26.172C289.089 25.932 288.585 25.584 288.201 25.128C287.817 24.648 287.529 24.072 287.337 23.4C287.169 22.704 287.049 21.9 286.977 20.988L286.725 17.712C286.629 16.512 286.389 15.576 286.005 14.904C285.621 14.232 285.165 13.74 284.637 13.428C284.133 13.116 283.605 12.936 283.053 12.888C282.501 12.816 282.021 12.78 281.613 12.78H278.013V25.776H282.009V26.28H270.417V25.776Z" fill="#B2B2B2"/>
<path d="M314.085 13.428C314.085 15.588 314.229 17.472 314.517 19.08C314.805 20.688 315.285 22.032 315.957 23.112C316.629 24.192 317.493 24.996 318.549 25.524C319.605 26.052 320.913 26.316 322.473 26.316C324.009 26.316 325.305 26.052 326.361 25.524C327.441 24.996 328.317 24.192 328.989 23.112C329.661 22.032 330.141 20.688 330.429 19.08C330.717 17.472 330.861 15.588 330.861 13.428C330.861 11.772 330.753 10.176 330.537 8.64C330.321 7.08 329.901 5.7 329.277 4.5C328.677 3.276 327.825 2.304 326.721 1.584C325.641 0.863999 324.225 0.504 322.473 0.504C320.721 0.504 319.293 0.863999 318.189 1.584C317.109 2.304 316.257 3.276 315.633 4.5C315.033 5.7 314.625 7.08 314.409 8.64C314.193 10.176 314.085 11.772 314.085 13.428ZM309.945 13.428C309.945 11.508 310.317 9.732 311.061 8.1C311.829 6.468 312.801 5.052 313.977 3.852C315.177 2.652 316.521 1.716 318.009 1.044C319.497 0.348 320.985 0 322.473 0C324.057 0 325.593 0.348 327.081 1.044C328.593 1.716 329.937 2.652 331.113 3.852C332.289 5.052 333.225 6.468 333.921 8.1C334.641 9.732 335.001 11.508 335.001 13.428C335.001 15.108 334.677 16.752 334.029 18.36C333.381 19.968 332.493 21.396 331.365 22.644C330.237 23.892 328.905 24.9 327.369 25.668C325.857 26.436 324.225 26.82 322.473 26.82C320.673 26.82 319.005 26.448 317.469 25.704C315.933 24.96 314.601 23.976 313.473 22.752C312.369 21.504 311.505 20.076 310.881 18.468C310.257 16.836 309.945 15.156 309.945 13.428Z" fill="#B2B2B2"/>
<path d="M339.286 25.776H343.282V1.152H339.286V0.648001H346.99L359.158 20.268H359.23V1.152H355.234V0.648001H363.766V1.152H359.77V26.784H359.05L343.894 2.628H343.822V25.776H347.818V26.28H339.286V25.776Z" fill="#B2B2B2"/>
<path d="M366.67 25.776H370.666V1.152H366.67V0.648001H387.262V6.876H386.866C386.554 5.94 386.218 5.124 385.858 4.428C385.498 3.708 385.066 3.108 384.562 2.628C384.058 2.124 383.458 1.752 382.762 1.512C382.066 1.272 381.226 1.152 380.242 1.152H374.266V12.276H376.606C377.398 12.276 378.07 12.204 378.622 12.06C379.174 11.916 379.642 11.652 380.026 11.268C380.434 10.86 380.77 10.32 381.034 9.648C381.322 8.952 381.598 8.064 381.862 6.984H382.258V18.18H381.862C381.694 17.484 381.514 16.812 381.322 16.164C381.154 15.516 380.902 14.94 380.566 14.436C380.254 13.932 379.822 13.536 379.27 13.248C378.742 12.936 378.046 12.78 377.182 12.78H374.266V25.776H381.07C382.39 25.776 383.482 25.5 384.346 24.948C385.234 24.372 385.954 23.7 386.506 22.932C387.058 22.14 387.466 21.324 387.73 20.484C387.994 19.644 388.162 18.948 388.234 18.396H388.63V26.28H366.67V25.776Z" fill="#B2B2B2"/>
</svg>
